<svg width="42" height="42" viewBox="0 0 42 42" fill="none" xmlns="http://www.w3.org/2000/svg">
<g clip-path="url(#clip0_253_1916)">
<path d="M21 13.9058C22.472 13.9058 23.6653 12.7124 23.6653 11.2405C23.6653 9.7685 22.472 8.5752 21 8.5752C19.528 8.5752 18.3347 9.7685 18.3347 11.2405C18.3347 12.7124 19.528 13.9058 21 13.9058Z" fill="#4294FF"/>
<path d="M35 0.00146484H6.99998C3.1085 0.0322266 -0.0232898 3.2079 7.0771e-06 7.09946V28.3969C-0.0232898 32.2887 3.10825 35.4649 6.99998 35.4966H12.1152L18.6742 41.0967C19.9734 42.284 21.9586 42.3014 23.2784 41.1369L30.0072 35.4949H35C38.8917 35.4632 42.0232 32.287 41.9999 28.3952V7.09946C42.0233 3.2079 38.8915 0.0322266 35 0.00146484ZM21 5.32496C29.0762 5.53849 29.0745 17.5347 21 17.75C12.9238 17.5347 12.9255 5.54366 21 5.32496ZM28.4357 30.1155C27.4993 30.3544 26.5464 29.7889 26.3074 28.8524C26.3064 28.8482 26.3053 28.844 26.3042 28.8397C25.4085 25.9098 22.3072 24.2607 19.3773 25.1564C17.6136 25.6956 16.2332 27.076 15.694 28.8397C15.4494 29.7753 14.4928 30.3355 13.5572 30.0909C12.6217 29.8464 12.0615 28.8898 12.306 27.9542C13.6592 23.1522 18.649 20.3563 23.451 21.7095C26.4776 22.5624 28.8429 24.9276 29.6957 27.9542C29.9394 28.8982 29.3773 29.8623 28.4357 30.1155Z" fill="#4294FF"/>
</g>
<defs>
<clipPath id="clip0_253_1916">
<rect width="42" height="42" fill="white"/>
</clipPath>
</defs>
</svg>
