<svg width="20" height="20" viewBox="0 0 20 20" fill="none" xmlns="http://www.w3.org/2000/svg">
<g clip-path="url(#clip0_253_2163)">
<path d="M19.1667 20H0.833333C0.375 20 0 19.625 0 19.1667C0 18.7083 0.375 18.3333 0.833333 18.3333H19.1667C19.625 18.3333 20 18.7083 20 19.1667C20 19.625 19.625 20 19.1667 20ZM12.3083 15.7167L17.6 10.0917C18.325 9.36667 18.5333 8.33333 18.1417 7.39167C17.75 6.45 16.875 5.85833 15.85 5.85H14.125L14.1 3.30833C14.1 1.48333 12.6167 0 10.7917 0H9.14167C7.31667 0 5.83333 1.48333 5.83333 3.31667V5.83333H4.125C3.1 5.83333 2.225 6.425 1.83333 7.375C1.44167 8.31667 1.65 9.35833 2.35833 10.0583L7.63333 15.725C8.275 16.3667 9.125 16.6917 9.975 16.6917C10.825 16.6917 11.6667 16.3667 12.3167 15.725L12.3083 15.7167ZM6.66667 7.5C6.89167 7.5 7.1 7.40833 7.25833 7.25833C7.41667 7.1 7.5 6.89167 7.5 6.66667V3.30833C7.5 2.4 8.23333 1.66667 9.14167 1.66667H10.7917C11.7 1.66667 12.4333 2.40833 12.4333 3.31667L12.4583 6.69167C12.4583 7.15 12.8333 7.51667 13.2917 7.51667H15.8333C16.3417 7.51667 16.5417 7.90833 16.5833 8.025C16.6333 8.14167 16.7667 8.55833 16.3833 8.93333L11.1083 14.5417C10.4667 15.175 9.43333 15.1667 8.81667 14.55L3.54167 8.88333C3.18333 8.525 3.31667 8.10833 3.36667 7.99167C3.41667 7.875 3.61667 7.48333 4.11667 7.48333H6.66667V7.5Z" fill="white"/>
</g>
<defs>
<clipPath id="clip0_253_2163">
<rect width="20" height="20" fill="white"/>
</clipPath>
</defs>
</svg>
