<svg width="24" height="24" viewBox="0 0 24 24" fill="none" xmlns="http://www.w3.org/2000/svg">
<g clip-path="url(#clip0_119_168)">
<path d="M22.922 9.689C22.238 9.118 21.345 8.882 20.464 9.041L14.284 10.165C13.371 10.331 12.577 10.799 12 11.454C11.422 10.799 10.629 10.331 9.71502 10.165L3.53602 9.041C2.65702 8.881 1.76202 9.118 1.07702 9.689C0.392024 10.26 -0.000976562 11.1 -0.000976562 11.992V21.826L11.999 24.008L23.999 21.826V11.992C23.999 11.1 23.606 10.261 22.921 9.689H22.922ZM11 21.793L2.00002 20.157V11.992C2.00002 11.585 2.22502 11.336 2.35902 11.224C2.49302 11.112 2.77602 10.935 3.17902 11.008L9.35802 12.132C10.31 12.305 11 13.132 11 14.1V21.794V21.793ZM22 20.157L13 21.793V14.099C13 13.132 13.69 12.304 14.642 12.131L20.822 11.007C21.229 10.937 21.508 11.111 21.641 11.223C21.774 11.335 22 11.583 22 11.991V20.157ZM12 9C14.481 9 16.5 6.981 16.5 4.5C16.5 2.019 14.481 0 12 0C9.51902 0 7.50002 2.019 7.50002 4.5C7.50002 6.981 9.51902 9 12 9ZM12 2C13.379 2 14.5 3.122 14.5 4.5C14.5 5.878 13.379 7 12 7C10.621 7 9.50002 5.878 9.50002 4.5C9.50002 3.122 10.622 2 12 2Z" fill="#888888"/>
</g>
<defs>
<clipPath id="clip0_119_168">
<rect width="24" height="24" fill="white"/>
</clipPath>
</defs>
</svg>
