<svg width="16" height="16" viewBox="0 0 16 16" fill="none" xmlns="http://www.w3.org/2000/svg">
<g clip-path="url(#clip0_189_628)">
<path d="M15.2813 6.45933C14.8253 6.07867 14.2299 5.92133 13.6426 6.02733L9.5226 6.77667C8.91393 6.88733 8.3846 7.19933 7.99994 7.636C7.6146 7.19933 7.08593 6.88733 6.4766 6.77667L2.35727 6.02733C1.77127 5.92067 1.1746 6.07867 0.717934 6.45933C0.261268 6.84 -0.000732422 7.4 -0.000732422 7.99467V14.5507L7.99927 16.0053L15.9993 14.5507V7.99467C15.9993 7.4 15.7373 6.84067 15.2806 6.45933H15.2813ZM7.33327 14.5287L1.33327 13.438V7.99467C1.33327 7.72333 1.48327 7.55733 1.5726 7.48267C1.66193 7.408 1.8506 7.29 2.11927 7.33867L6.2386 8.088C6.87327 8.20333 7.33327 8.75467 7.33327 9.4V14.5293V14.5287ZM14.6666 13.438L8.6666 14.5287V9.39933C8.6666 8.75467 9.1266 8.20267 9.76127 8.08733L13.8813 7.338C14.1526 7.29133 14.3386 7.40733 14.4273 7.482C14.5159 7.55667 14.6666 7.722 14.6666 7.994V13.438ZM7.99994 6C9.65393 6 10.9999 4.654 10.9999 3C10.9999 1.346 9.65393 0 7.99994 0C6.34593 0 4.99993 1.346 4.99993 3C4.99993 4.654 6.34593 6 7.99994 6ZM7.99994 1.33333C8.91927 1.33333 9.6666 2.08133 9.6666 3C9.6666 3.91867 8.91927 4.66667 7.99994 4.66667C7.0806 4.66667 6.33327 3.91867 6.33327 3C6.33327 2.08133 7.08127 1.33333 7.99994 1.33333Z" fill="#888888"/>
</g>
<defs>
<clipPath id="clip0_189_628">
<rect width="16" height="16" fill="white"/>
</clipPath>
</defs>
</svg>
