<svg width="24" height="25" viewBox="0 0 24 25" fill="none" xmlns="http://www.w3.org/2000/svg">
<g clip-path="url(#clip0_205_257)">
<path d="M24 8.83086C24 8.43303 23.842 8.0515 23.5607 7.7702C23.2794 7.48889 22.8978 7.33086 22.5 7.33086C22.5 7.33086 21.916 7.33086 21.875 7.33886C21.1272 5.95339 20.2705 4.62956 19.313 3.37986C18.8134 2.73016 18.121 2.25516 17.335 2.02286C15.574 1.16686 8.426 1.16686 6.665 2.02286C5.879 2.25516 5.18664 2.73016 4.687 3.37986C3.72945 4.62956 2.87275 5.95339 2.125 7.33886C2.084 7.33086 1.5 7.33086 1.5 7.33086C1.10218 7.33086 0.720644 7.48889 0.43934 7.7702C0.158035 8.0515 0 8.43303 0 8.83086L0 15.3309C0.000193338 16.0328 0.18511 16.7224 0.536174 17.3302C0.887237 17.9381 1.39208 18.4429 2 18.7939V20.3309C2 21.1265 2.31607 21.8896 2.87868 22.4522C3.44129 23.0148 4.20435 23.3309 5 23.3309C5.79565 23.3309 6.55871 23.0148 7.12132 22.4522C7.68393 21.8896 8 21.1265 8 20.3309V19.3309H16V20.3309C16 21.1265 16.3161 21.8896 16.8787 22.4522C17.4413 23.0148 18.2044 23.3309 19 23.3309C19.7956 23.3309 20.5587 23.0148 21.1213 22.4522C21.6839 21.8896 22 21.1265 22 20.3309V18.7939C22.6079 18.4429 23.1128 17.9381 23.4638 17.3302C23.8149 16.7224 23.9998 16.0328 24 15.3309V8.83086ZM6.274 4.59686C6.51898 4.28093 6.85736 4.05032 7.241 3.93786C8.76 3.18686 15.241 3.18686 16.759 3.93786C17.1426 4.05032 17.481 4.28093 17.726 4.59686C19.2446 6.58811 20.4953 8.77008 21.446 11.0869C15.1818 10.1729 8.81817 10.1729 2.554 11.0869C3.5047 8.77008 4.75538 6.58811 6.274 4.59686ZM6 20.3309C6 20.5961 5.89464 20.8504 5.70711 21.038C5.51957 21.2255 5.26522 21.3309 5 21.3309C4.73478 21.3309 4.48043 21.2255 4.29289 21.038C4.10536 20.8504 4 20.5961 4 20.3309V19.3309H6V20.3309ZM20 20.3309C20 20.5961 19.8946 20.8504 19.7071 21.038C19.5196 21.2255 19.2652 21.3309 19 21.3309C18.7348 21.3309 18.4804 21.2255 18.2929 21.038C18.1054 20.8504 18 20.5961 18 20.3309V19.3309H20V20.3309ZM20 17.3309H4C3.46957 17.3309 2.96086 17.1201 2.58579 16.7451C2.21071 16.37 2 15.8613 2 15.3309V13.1879C5.31076 12.6817 8.6514 12.3954 12 12.3309C15.3486 12.3954 18.6892 12.6817 22 13.1879V15.3309C22 15.8613 21.7893 16.37 21.4142 16.7451C21.0391 17.1201 20.5304 17.3309 20 17.3309ZM6 15.3309C6 15.5961 5.89464 15.8504 5.70711 16.038C5.51957 16.2255 5.26522 16.3309 5 16.3309C4.73478 16.3309 4.48043 16.2255 4.29289 16.038C4.10536 15.8504 4 15.5961 4 15.3309C4 15.0656 4.10536 14.8113 4.29289 14.6238C4.48043 14.4362 4.73478 14.3309 5 14.3309C5.26522 14.3309 5.51957 14.4362 5.70711 14.6238C5.89464 14.8113 6 15.0656 6 15.3309ZM20 15.3309C20 15.5961 19.8946 15.8504 19.7071 16.038C19.5196 16.2255 19.2652 16.3309 19 16.3309C18.7348 16.3309 18.4804 16.2255 18.2929 16.038C18.1054 15.8504 18 15.5961 18 15.3309C18 15.0656 18.1054 14.8113 18.2929 14.6238C18.4804 14.4362 18.7348 14.3309 19 14.3309C19.2652 14.3309 19.5196 14.4362 19.7071 14.6238C19.8946 14.8113 20 15.0656 20 15.3309Z" fill="#515151"/>
</g>
<defs>
<clipPath id="clip0_205_257">
<rect width="24" height="24" fill="white" transform="translate(0 0.330811)"/>
</clipPath>
</defs>
</svg>
