<svg width="44" height="44" viewBox="0 0 44 44" fill="none" xmlns="http://www.w3.org/2000/svg">
<rect width="44" height="44" rx="22" fill="#4294FF" fill-opacity="0.1"/>
<g clip-path="url(#clip0_237_1316)">
<path d="M33 21H31V19C31 18.4477 30.5523 18 30 18C29.4477 18 29 18.4477 29 19V21H27C26.4477 21 26 21.4477 26 22C26 22.5523 26.4477 23 27 23H29V25C29 25.5523 29.4477 26 30 26C30.5523 26 31 25.5523 31 25V23H33C33.5523 23 34 22.5523 34 22C34 21.4477 33.5523 21 33 21Z" fill="#4294FF"/>
<path d="M19 22C22.3137 22 25 19.3137 25 16C25 12.6863 22.3137 10 19 10C15.6863 10 13 12.6863 13 16C13 19.3137 15.6863 22 19 22Z" fill="#4294FF"/>
<path d="M19 24C14.0317 24.0055 10.0055 28.0317 10 33C10 33.5523 10.4477 34 11 34H27C27.5522 34 28 33.5523 28 33C27.9945 28.0317 23.9683 24.0055 19 24Z" fill="#4294FF"/>
</g>
<defs>
<clipPath id="clip0_237_1316">
<rect width="24" height="24" fill="white" transform="translate(10 10)"/>
</clipPath>
</defs>
</svg>
