<svg width="25" height="24" viewBox="0 0 25 24" fill="none" xmlns="http://www.w3.org/2000/svg">
<path d="M12.795 20.5299C10.465 20.5299 8.13502 20.1599 5.92502 19.4199C5.08502 19.1299 4.44502 18.5399 4.16502 17.7699C3.87502 16.9999 3.97502 16.1499 4.43502 15.3899L5.58502 13.4799C5.82502 13.0799 6.04502 12.2799 6.04502 11.8099V8.91992C6.04502 5.19992 9.07502 2.16992 12.795 2.16992C16.515 2.16992 19.545 5.19992 19.545 8.91992V11.8099C19.545 12.2699 19.765 13.0799 20.005 13.4899L21.145 15.3899C21.575 16.1099 21.655 16.9799 21.365 17.7699C21.075 18.5599 20.445 19.1599 19.655 19.4199C17.455 20.1599 15.125 20.5299 12.795 20.5299ZM12.795 3.66992C9.90502 3.66992 7.54502 6.01992 7.54502 8.91992V11.8099C7.54502 12.5399 7.24502 13.6199 6.87502 14.2499L5.72502 16.1599C5.50502 16.5299 5.44502 16.9199 5.57502 17.2499C5.69502 17.5899 5.99502 17.8499 6.40502 17.9899C10.585 19.3899 15.015 19.3899 19.195 17.9899C19.555 17.8699 19.835 17.5999 19.965 17.2399C20.095 16.8799 20.065 16.4899 19.865 16.1599L18.715 14.2499C18.335 13.5999 18.045 12.5299 18.045 11.7999V8.91992C18.045 6.01992 15.695 3.66992 12.795 3.66992Z" fill="#939393"/>
<path d="M14.655 3.93993C14.585 3.93993 14.515 3.92993 14.445 3.90993C14.155 3.82993 13.875 3.76993 13.605 3.72993C12.755 3.61993 11.935 3.67993 11.165 3.90993C10.885 3.99993 10.585 3.90993 10.395 3.69993C10.205 3.48993 10.145 3.18993 10.255 2.91993C10.665 1.86993 11.665 1.17993 12.805 1.17993C13.945 1.17993 14.945 1.85993 15.355 2.91993C15.455 3.18993 15.405 3.48993 15.215 3.69993C15.065 3.85993 14.855 3.93993 14.655 3.93993Z" fill="#939393"/>
<path d="M12.795 22.8101C11.805 22.8101 10.845 22.4101 10.145 21.7101C9.44504 21.0101 9.04504 20.0501 9.04504 19.0601H10.545C10.545 19.6501 10.785 20.2301 11.205 20.6501C11.625 21.0701 12.205 21.3101 12.795 21.3101C14.035 21.3101 15.045 20.3001 15.045 19.0601H16.545C16.545 21.1301 14.865 22.8101 12.795 22.8101Z" fill="#939393"/>
</svg>
