<svg width="24" height="25" viewBox="0 0 24 25" fill="none" xmlns="http://www.w3.org/2000/svg">
<g clip-path="url(#clip0_205_231)">
<path d="M12 24.3308C5.383 24.3308 0 18.9478 0 12.3308C0 5.71381 5.383 0.330811 12 0.330811C18.617 0.330811 24 5.71381 24 12.3308C24 18.9478 18.617 24.3308 12 24.3308ZM12 2.33081C6.486 2.33081 2 6.81681 2 12.3308C2 17.8448 6.486 22.3308 12 22.3308C17.514 22.3308 22 17.8448 22 12.3308C22 6.81681 17.514 2.33081 12 2.33081ZM17 12.3308C17 11.7778 16.553 11.3308 16 11.3308H13V6.33081C13 5.77781 12.552 5.33081 12 5.33081C11.448 5.33081 11 5.77781 11 6.33081V12.3308C11 12.8838 11.448 13.3308 12 13.3308H16C16.553 13.3308 17 12.8838 17 12.3308Z" fill="#515151"/>
</g>
<defs>
<clipPath id="clip0_205_231">
<rect width="24" height="24" fill="white" transform="translate(0 0.330811)"/>
</clipPath>
</defs>
</svg>
