<svg width="17" height="17" viewBox="0 0 17 17" fill="none" xmlns="http://www.w3.org/2000/svg">
<path fill-rule="evenodd" clip-rule="evenodd" d="M9.35589 7.9309H15.5512C16.04 7.9309 16.4362 8.32715 16.4362 8.81594C16.4362 9.30473 16.04 9.70098 15.5512 9.70098H9.35589V15.8963C9.35589 16.385 8.95964 16.7813 8.47085 16.7813C7.98205 16.7813 7.58581 16.385 7.58581 15.8963V9.70098H1.39053C0.901739 9.70098 0.505493 9.30473 0.505493 8.81594C0.505493 8.32715 0.901739 7.9309 1.39053 7.9309H7.58581V1.73563C7.58581 1.24683 7.98205 0.850586 8.47085 0.850586C8.95964 0.850586 9.35589 1.24683 9.35589 1.73563V7.9309Z" fill="white"/>
</svg>
