<svg width="24" height="25" viewBox="0 0 24 25" fill="none" xmlns="http://www.w3.org/2000/svg">
<g clip-path="url(#clip0_205_249)">
<path d="M16 23.3308C16 23.8828 15.553 24.3308 15 24.3308H6C3.243 24.3308 1 22.0878 1 19.3308V5.33081C1 2.57381 3.243 0.330811 6 0.330811H10.515C12.384 0.330811 14.142 1.05881 15.465 2.38081L18.949 5.86681C19.22 6.13781 19.472 6.43481 19.697 6.74981C20.018 7.19881 19.914 7.82381 19.465 8.14481C19.016 8.46481 18.39 8.36181 18.07 7.91181C17.909 7.68681 17.729 7.47381 17.536 7.28181L14.051 3.79581C13.733 3.47781 13.38 3.20881 13 2.99081V7.33081C13 7.88181 13.448 8.33081 14 8.33081H17C17.553 8.33081 18 8.77881 18 9.33081C18 9.88281 17.553 10.3308 17 10.3308H14C12.346 10.3308 11 8.98481 11 7.33081V2.35381C10.84 2.33881 10.678 2.33081 10.515 2.33081H6C4.346 2.33081 3 3.67681 3 5.33081V19.3308C3 20.9848 4.346 22.3308 6 22.3308H15C15.553 22.3308 16 22.7788 16 23.3308ZM21.685 16.5978L18.644 16.0908C18.271 16.0288 18 15.7088 18 15.3308C18 14.7798 18.448 14.3308 19 14.3308H21.268C21.624 14.3308 21.956 14.5228 22.135 14.8308C22.41 15.3088 23.02 15.4718 23.501 15.1958C23.979 14.9188 24.143 14.3078 23.865 13.8298C23.331 12.9048 22.335 12.3298 21.267 12.3298H20.999V11.3298C20.999 10.7778 20.552 10.3298 19.999 10.3298C19.446 10.3298 18.999 10.7778 18.999 11.3298V12.3298C17.345 12.3298 15.999 13.6758 15.999 15.3298C15.999 16.6898 16.973 17.8398 18.314 18.0628L21.355 18.5698C21.728 18.6318 21.999 18.9518 21.999 19.3298C21.999 19.8808 21.551 20.3298 20.999 20.3298H18.731C18.375 20.3298 18.043 20.1378 17.864 19.8298C17.589 19.3508 16.978 19.1878 16.498 19.4648C16.02 19.7418 15.856 20.3528 16.134 20.8308C16.668 21.7558 17.664 22.3298 18.732 22.3298H19V23.3298C19 23.8818 19.447 24.3298 20 24.3298C20.553 24.3298 21 23.8818 21 23.3298V22.3298C22.654 22.3298 24 20.9838 24 19.3298C24 17.9698 23.026 16.8208 21.685 16.5978ZM7.5 15.3308H13C13.553 15.3308 14 14.8828 14 14.3308C14 13.7788 13.553 13.3308 13 13.3308H7.5C6.122 13.3308 5 14.4528 5 15.8308V17.8308C5 19.2088 6.122 20.3308 7.5 20.3308H13C13.553 20.3308 14 19.8828 14 19.3308C14 18.7788 13.553 18.3308 13 18.3308H7.5C7.224 18.3308 7 18.1068 7 17.8308V15.8308C7 15.5548 7.224 15.3308 7.5 15.3308ZM6 11.3308H8C8.552 11.3308 9 10.8828 9 10.3308C9 9.77881 8.552 9.33081 8 9.33081H6C5.448 9.33081 5 9.77881 5 10.3308C5 10.8828 5.448 11.3308 6 11.3308ZM6 7.33081H8C8.552 7.33081 9 6.88281 9 6.33081C9 5.77881 8.552 5.33081 8 5.33081H6C5.448 5.33081 5 5.77881 5 6.33081C5 6.88281 5.448 7.33081 6 7.33081Z" fill="#515151"/>
</g>
<defs>
<clipPath id="clip0_205_249">
<rect width="24" height="24" fill="white" transform="translate(0 0.330811)"/>
</clipPath>
</defs>
</svg>
