<svg width="42" height="42" viewBox="0 0 42 42" fill="none" xmlns="http://www.w3.org/2000/svg">
<g clip-path="url(#clip0_253_1923)">
<path d="M21 13.9058C22.472 13.9058 23.6653 12.7124 23.6653 11.2405C23.6653 9.7685 22.472 8.5752 21 8.5752C19.528 8.5752 18.3347 9.7685 18.3347 11.2405C18.3347 12.7124 19.528 13.9058 21 13.9058Z" fill="#FE7777"/>
<path d="M34.9999 0.00146484H6.99986C3.10838 0.0322266 -0.0234119 3.2079 -0.000114993 7.09946V28.3969C-0.0234119 32.2887 3.10813 35.4649 6.99986 35.4966H12.1151L18.6741 41.0967C19.9733 42.284 21.9585 42.3014 23.2783 41.1369L30.0071 35.4949H34.9998C38.8916 35.4632 42.0231 32.287 41.9998 28.3952V7.09946C42.0232 3.2079 38.8914 0.0322266 34.9999 0.00146484ZM20.9999 5.32496C29.0761 5.53849 29.0744 17.5347 20.9999 17.75C12.9237 17.5347 12.9254 5.54366 20.9999 5.32496ZM28.4356 30.1155C27.4991 30.3544 26.5463 29.7889 26.3073 28.8524C26.3062 28.8482 26.3052 28.844 26.3041 28.8397C25.4084 25.9098 22.3071 24.2607 19.3771 25.1564C17.6135 25.6956 16.233 27.076 15.6939 28.8397C15.4493 29.7753 14.4927 30.3355 13.5571 30.0909C12.6215 29.8464 12.0614 28.8898 12.3059 27.9542C13.6591 23.1522 18.6489 20.3563 23.4509 21.7095C26.4774 22.5624 28.8427 24.9276 29.6956 27.9542C29.9392 28.8982 29.3772 29.8623 28.4356 30.1155Z" fill="#FE7777"/>
</g>
<defs>
<clipPath id="clip0_253_1923">
<rect width="42" height="42" fill="white"/>
</clipPath>
</defs>
</svg>
