<svg width="44" height="44" viewBox="0 0 44 44" fill="none" xmlns="http://www.w3.org/2000/svg">
<rect width="44" height="44" rx="22" fill="#FE7777" fill-opacity="0.1"/>
<g clip-path="url(#clip0_237_1326)">
<path d="M34 22C34 22.2652 33.8946 22.5196 33.7071 22.7071C33.5196 22.8946 33.2652 23 33 23H27C26.7348 23 26.4804 22.8946 26.2929 22.7071C26.1054 22.5196 26 22.2652 26 22C26 21.7348 26.1054 21.4804 26.2929 21.2929C26.4804 21.1054 26.7348 21 27 21H33C33.2652 21 33.5196 21.1054 33.7071 21.2929C33.8946 21.4804 34 21.7348 34 22ZM19 22C20.1867 22 21.3467 21.6481 22.3334 20.9888C23.3201 20.3295 24.0892 19.3925 24.5433 18.2961C24.9974 17.1997 25.1162 15.9933 24.8847 14.8295C24.6532 13.6656 24.0818 12.5965 23.2426 11.7574C22.4035 10.9182 21.3344 10.3468 20.1705 10.1153C19.0067 9.88378 17.8003 10.0026 16.7039 10.4567C15.6075 10.9109 14.6705 11.6799 14.0112 12.6666C13.3519 13.6533 13 14.8133 13 16C13.0016 17.5908 13.6342 19.116 14.7591 20.2409C15.884 21.3658 17.4092 21.9984 19 22ZM19 24C16.6139 24.0027 14.3262 24.9517 12.639 26.639C10.9517 28.3262 10.0026 30.6139 10 33C10 33.2652 10.1054 33.5196 10.2929 33.7071C10.4804 33.8946 10.7348 34 11 34H27C27.2652 34 27.5196 33.8946 27.7071 33.7071C27.8946 33.5196 28 33.2652 28 33C27.9974 30.6139 27.0483 28.3262 25.361 26.639C23.6738 24.9517 21.3861 24.0027 19 24Z" fill="#FE7777"/>
</g>
<defs>
<clipPath id="clip0_237_1326">
<rect width="24" height="24" fill="white" transform="translate(10 10)"/>
</clipPath>
</defs>
</svg>
