<svg width="24" height="25" viewBox="0 0 24 25" fill="none" xmlns="http://www.w3.org/2000/svg">
<g clip-path="url(#clip0_205_253)">
<path d="M24 7.33081V8.33081C24 8.88281 23.553 9.33081 23 9.33081C22.447 9.33081 22 8.88281 22 8.33081V7.33081C22 5.67681 20.654 4.33081 19 4.33081H5C3.346 4.33081 2 5.67681 2 7.33081V17.3308C2 18.9848 3.346 20.3308 5 20.3308H8C8.553 20.3308 9 20.7788 9 21.3308C9 21.8828 8.553 22.3308 8 22.3308H5C2.243 22.3308 0 20.0878 0 17.3308V7.33081C0 4.57381 2.243 2.33081 5 2.33081H19C21.757 2.33081 24 4.57381 24 7.33081ZM15 9.33081H19C19.553 9.33081 20 8.88281 20 8.33081C20 7.77881 19.553 7.33081 19 7.33081H15C14.447 7.33081 14 7.77881 14 8.33081C14 8.88281 14.447 9.33081 15 9.33081ZM23.121 12.2098C23.687 12.7758 24 13.5298 24 14.3308C24 15.1318 23.687 15.8858 23.121 16.4528L16.414 23.1598C15.659 23.9148 14.654 24.3318 13.586 24.3318H12C11.447 24.3318 11 23.8838 11 23.3318V21.7458C11 20.6778 11.416 19.6728 12.172 18.9178L18.879 12.2108C20.049 11.0408 21.951 11.0408 23.121 12.2108V12.2098ZM22 14.3308C22 14.0638 21.896 13.8128 21.707 13.6238C21.316 13.2328 20.684 13.2338 20.293 13.6238L13.586 20.3308C13.214 20.7038 13 21.2188 13 21.7448V22.3308H13.586C14.12 22.3308 14.622 22.1228 15 21.7448L21.707 15.0378C21.896 14.8488 22 14.5978 22 14.3308ZM9 15.3308H6.732C6.376 15.3308 6.044 15.1388 5.865 14.8308C5.59 14.3518 4.979 14.1868 4.499 14.4658C4.021 14.7428 3.857 15.3538 4.135 15.8318C4.669 16.7568 5.665 17.3308 6.733 17.3308H7.001C7.001 17.8828 7.448 18.3308 8.001 18.3308C8.554 18.3308 9.001 17.8828 9.001 17.3308C10.655 17.3308 12.001 15.9848 12.001 14.3308C12.001 12.9708 11.027 11.8208 9.686 11.5978L6.645 11.0908C6.272 11.0288 6.001 10.7088 6.001 10.3308C6.001 9.77981 6.449 9.33081 7.001 9.33081H9.269C9.625 9.33081 9.957 9.52281 10.136 9.83081C10.411 10.3088 11.021 10.4728 11.502 10.1958C11.98 9.91881 12.144 9.30781 11.866 8.82981C11.332 7.90481 10.336 7.32981 9.268 7.32981H9C9 6.77781 8.553 6.32981 8 6.32981C7.447 6.32981 7 6.77781 7 7.32981C5.346 7.32981 4 8.67581 4 10.3298C4 11.6898 4.974 12.8398 6.315 13.0628L9.356 13.5698C9.729 13.6318 10 13.9518 10 14.3298C10 14.8808 9.552 15.3298 9 15.3298V15.3308ZM14 12.3308C14 12.8828 14.448 13.3308 15 13.3308C15.552 13.3308 16 12.8828 16 12.3308C16 11.7788 15.552 11.3308 15 11.3308C14.448 11.3308 14 11.7788 14 12.3308Z" fill="#515151"/>
</g>
<defs>
<clipPath id="clip0_205_253">
<rect width="24" height="24" fill="white" transform="translate(0 0.330811)"/>
</clipPath>
</defs>
</svg>
