<svg width="19" height="19" viewBox="0 0 19 19" fill="none" xmlns="http://www.w3.org/2000/svg">
<path fill-rule="evenodd" clip-rule="evenodd" d="M3.70722 13.9627C0.875264 11.1307 0.875264 6.53923 3.70722 3.70728C6.53917 0.875325 11.1307 0.875325 13.9626 3.70728C16.5512 6.29584 16.7737 10.3545 14.63 13.1958L17.4912 16.057L17.4912 16.057C18.2376 16.8034 17.118 17.923 16.3717 17.1766L13.5446 14.3495C10.6955 16.7882 6.40374 16.6592 3.70722 13.9627ZM12.843 4.82688C10.6294 2.61326 7.04038 2.61326 4.82676 4.82688C2.61314 7.0405 2.61314 10.6295 4.82676 12.8431C7.04038 15.0567 10.6294 15.0567 12.843 12.8431C15.0566 10.6295 15.0566 7.0405 12.843 4.82688Z" fill="#92929D"/>
</svg>
