<svg width="25" height="24" viewBox="0 0 25 24" fill="none" xmlns="http://www.w3.org/2000/svg">
<path d="M12.775 15.75C10.705 15.75 9.02502 14.07 9.02502 12C9.02502 9.93 10.705 8.25 12.775 8.25C14.845 8.25 16.525 9.93 16.525 12C16.525 14.07 14.845 15.75 12.775 15.75ZM12.775 9.75C11.535 9.75 10.525 10.76 10.525 12C10.525 13.24 11.535 14.25 12.775 14.25C14.015 14.25 15.025 13.24 15.025 12C15.025 10.76 14.015 9.75 12.775 9.75Z" fill="#939393"/>
<path d="M15.985 22.19C15.775 22.19 15.565 22.16 15.355 22.11C14.735 21.94 14.215 21.55 13.885 21L13.765 20.8C13.175 19.78 12.365 19.78 11.775 20.8L11.665 20.99C11.335 21.55 10.815 21.95 10.195 22.11C9.56502 22.28 8.91502 22.19 8.36502 21.86L6.64502 20.87C6.03502 20.52 5.59502 19.95 5.40502 19.26C5.22502 18.57 5.31502 17.86 5.66502 17.25C5.95502 16.74 6.03502 16.28 5.86502 15.99C5.69502 15.7 5.26502 15.53 4.67502 15.53C3.21502 15.53 2.02502 14.34 2.02502 12.88V11.12C2.02502 9.66004 3.21502 8.47004 4.67502 8.47004C5.26502 8.47004 5.69502 8.30004 5.86502 8.01004C6.03502 7.72004 5.96502 7.26004 5.66502 6.75004C5.31502 6.14004 5.22502 5.42004 5.40502 4.74004C5.58502 4.05004 6.02502 3.48004 6.64502 3.13004L8.37502 2.14004C9.50502 1.47004 10.995 1.86004 11.675 3.01004L11.795 3.21004C12.385 4.23004 13.195 4.23004 13.785 3.21004L13.895 3.02004C14.575 1.86004 16.065 1.47004 17.205 2.15004L18.925 3.14004C19.535 3.49004 19.975 4.06004 20.165 4.75004C20.345 5.44004 20.255 6.15004 19.905 6.76004C19.615 7.27004 19.535 7.73004 19.705 8.02004C19.875 8.31004 20.305 8.48004 20.895 8.48004C22.355 8.48004 23.545 9.67004 23.545 11.13V12.89C23.545 14.35 22.355 15.54 20.895 15.54C20.305 15.54 19.875 15.71 19.705 16C19.535 16.29 19.605 16.75 19.905 17.26C20.255 17.87 20.355 18.59 20.165 19.27C19.985 19.96 19.545 20.53 18.925 20.88L17.195 21.87C16.815 22.08 16.405 22.19 15.985 22.19ZM12.775 18.49C13.665 18.49 14.495 19.05 15.065 20.04L15.175 20.23C15.295 20.44 15.495 20.59 15.735 20.65C15.975 20.71 16.215 20.68 16.415 20.56L18.145 19.56C18.405 19.41 18.605 19.16 18.685 18.86C18.765 18.56 18.725 18.25 18.575 17.99C18.005 17.01 17.935 16 18.375 15.23C18.815 14.46 19.725 14.02 20.865 14.02C21.505 14.02 22.015 13.51 22.015 12.87V11.11C22.015 10.48 21.505 9.96004 20.865 9.96004C19.725 9.96004 18.815 9.52004 18.375 8.75004C17.935 7.98004 18.005 6.97004 18.575 5.99004C18.725 5.73004 18.765 5.42004 18.685 5.12004C18.605 4.82004 18.415 4.58004 18.155 4.42004L16.425 3.43004C15.995 3.17004 15.425 3.32004 15.165 3.76004L15.055 3.95004C14.485 4.94004 13.655 5.50004 12.765 5.50004C11.875 5.50004 11.045 4.94004 10.475 3.95004L10.365 3.75004C10.115 3.33004 9.55502 3.18004 9.12502 3.43004L7.39502 4.43004C7.13502 4.58004 6.93502 4.83004 6.85502 5.13004C6.77502 5.43004 6.81502 5.74004 6.96502 6.00004C7.53502 6.98004 7.60502 7.99004 7.16502 8.76004C6.72502 9.53004 5.81502 9.97004 4.67502 9.97004C4.03502 9.97004 3.52502 10.48 3.52502 11.12V12.88C3.52502 13.51 4.03502 14.03 4.67502 14.03C5.81502 14.03 6.72502 14.47 7.16502 15.24C7.60502 16.01 7.53502 17.02 6.96502 18C6.81502 18.26 6.77502 18.57 6.85502 18.87C6.93502 19.17 7.12502 19.41 7.38502 19.57L9.11502 20.56C9.32502 20.69 9.57502 20.72 9.80502 20.66C10.045 20.6 10.245 20.44 10.375 20.23L10.485 20.04C11.055 19.06 11.885 18.49 12.775 18.49Z" fill="#939393"/>
</svg>
