<svg width="42" height="42" viewBox="0 0 42 42" fill="none" xmlns="http://www.w3.org/2000/svg">
<g clip-path="url(#clip0_253_1909)">
<path d="M21 13.9058C22.472 13.9058 23.6653 12.7124 23.6653 11.2405C23.6653 9.7685 22.472 8.5752 21 8.5752C19.528 8.5752 18.3347 9.7685 18.3347 11.2405C18.3347 12.7124 19.528 13.9058 21 13.9058Z" fill="#57B4C7"/>
<path d="M35 0.000976562H6.99998C3.1085 0.0317383 -0.0232898 3.20741 7.07711e-06 7.09898V28.3964C-0.0232898 32.2882 3.10825 35.4644 6.99998 35.4961H12.1152L18.6742 41.0962C19.9734 42.2835 21.9586 42.3009 23.2784 41.1364L30.0072 35.4944H35C38.8917 35.4627 42.0232 32.2865 41.9999 28.3947V7.09898C42.0233 3.20741 38.8915 0.0317383 35 0.000976562ZM21 5.32448C29.0762 5.538 29.0745 17.5343 21 17.7495C12.9238 17.5342 12.9255 5.54317 21 5.32448ZM28.4357 30.115C27.4993 30.3539 26.5464 29.7884 26.3074 28.8519C26.3064 28.8477 26.3053 28.8435 26.3042 28.8392C25.4085 25.9093 22.3072 24.2602 19.3773 25.1559C17.6136 25.6951 16.2332 27.0756 15.694 28.8392C15.4494 29.7748 14.4928 30.335 13.5572 30.0904C12.6217 29.8459 12.0615 28.8893 12.306 27.9537C13.6592 23.1517 18.649 20.3558 23.451 21.709C26.4776 22.5619 28.8429 24.9272 29.6957 27.9537C29.9394 28.8977 29.3773 29.8618 28.4357 30.115Z" fill="#57B4C7"/>
</g>
<defs>
<clipPath id="clip0_253_1909">
<rect width="42" height="42" fill="white"/>
</clipPath>
</defs>
</svg>
