<svg width="44" height="44" viewBox="0 0 44 44" fill="none" xmlns="http://www.w3.org/2000/svg">
<rect width="44" height="44" rx="22" fill="#2A9BB0" fill-opacity="0.1"/>
<path d="M17.5 23C16.61 23 15.74 22.7361 14.9999 22.2416C14.2599 21.7472 13.6831 21.0443 13.3425 20.2221C13.0019 19.3998 12.9128 18.495 13.0865 17.6221C13.2601 16.7492 13.6887 15.9474 14.318 15.318C14.9474 14.6887 15.7492 14.2601 16.6221 14.0865C17.495 13.9128 18.3998 14.002 19.2221 14.3425C20.0443 14.6831 20.7471 15.2599 21.2416 15.9999C21.7361 16.74 22 17.61 22 18.5C21.9987 19.6931 21.5241 20.8369 20.6805 21.6805C19.8369 22.5241 18.6931 22.9987 17.5 23ZM25 30C24.9984 28.6744 24.4711 27.4036 23.5338 26.4662C22.5964 25.5289 21.3256 25.0016 20 25H15C13.6744 25.0016 12.4036 25.5289 11.4662 26.4662C10.5289 27.4036 10.0016 28.6744 10 30L10 34H25V30ZM27.5 19C26.61 19 25.74 18.7361 24.9999 18.2416C24.2599 17.7471 23.6831 17.0443 23.3425 16.2221C23.0019 15.3998 22.9128 14.495 23.0865 13.6221C23.2601 12.7492 23.6887 11.9474 24.318 11.318C24.9474 10.6887 25.7492 10.2601 26.6221 10.0865C27.495 9.91283 28.3998 10.0019 29.2221 10.3425C30.0443 10.6831 30.7471 11.2599 31.2416 11.9999C31.7361 12.74 32 13.61 32 14.5C31.9987 15.6931 31.5241 16.8369 30.6805 17.6805C29.8369 18.5241 28.6931 18.9987 27.5 19ZM29 21H24C23.8245 21.0081 23.6496 21.0257 23.476 21.053C23.1124 21.8943 22.5754 22.6494 21.9 23.269C23.3663 23.6839 24.6574 24.5654 25.5777 25.78C26.498 26.9946 26.9973 28.4761 27 30H34V26C33.9984 24.6744 33.4711 23.4036 32.5338 22.4662C31.5964 21.5289 30.3256 21.0016 29 21Z" fill="#2A9BB0"/>
</svg>
