<svg width="16" height="16" viewBox="0 0 16 16" fill="none" xmlns="http://www.w3.org/2000/svg">
<g clip-path="url(#clip0_189_624)">
<path d="M15.8906 5.86272C15.7542 5.42865 15.4817 5.04999 15.1135 4.78274C14.7453 4.51549 14.3008 4.37383 13.8459 4.37872H10.9332L10.0486 1.62138C9.90943 1.18736 9.63606 0.808727 9.26786 0.540094C8.89966 0.271462 8.45566 0.126709 7.99988 0.126709C7.54411 0.126709 7.1001 0.271462 6.7319 0.540094C6.36371 0.808727 6.09034 1.18736 5.95122 1.62138L5.06655 4.37872H2.15388C1.70038 4.37936 1.25868 4.52331 0.891871 4.78999C0.525063 5.05667 0.251912 5.43244 0.111432 5.86364C-0.0290475 6.29484 -0.0296693 6.75941 0.109656 7.19098C0.24898 7.62255 0.521125 7.99906 0.887218 8.26672L3.25788 10.0001L2.35655 12.7914C2.21089 13.2243 2.20905 13.6927 2.35129 14.1268C2.49353 14.5608 2.77225 14.9373 3.14588 15.2001C3.51312 15.4712 3.95815 15.6165 4.41465 15.6142C4.87116 15.612 5.31471 15.4622 5.67922 15.1874L7.99988 13.4794L10.3212 15.1854C10.6878 15.455 11.1304 15.6015 11.5855 15.6037C12.0405 15.6059 12.4845 15.4638 12.8537 15.1977C13.2229 14.9317 13.4982 14.5554 13.6401 14.123C13.7819 13.6907 13.783 13.2244 13.6432 12.7914L12.7419 10.0001L15.1152 8.26672C15.4855 8.00242 15.7608 7.62592 15.9005 7.19295C16.0401 6.75998 16.0366 6.29356 15.8906 5.86272ZM14.3286 7.19005L11.5659 9.20938C11.4524 9.29216 11.368 9.40867 11.3246 9.54227C11.2813 9.67588 11.2813 9.81976 11.3246 9.95339L12.3746 13.2001C12.4277 13.3647 12.4272 13.542 12.3733 13.7064C12.3193 13.8708 12.2146 14.0138 12.0742 14.115C11.9338 14.2161 11.7649 14.2701 11.5919 14.2692C11.4189 14.2683 11.2506 14.2126 11.1112 14.1101L8.39455 12.1101C8.28013 12.026 8.14186 11.9807 7.99988 11.9807C7.85791 11.9807 7.71964 12.026 7.60522 12.1101L4.88855 14.1101C4.74927 14.214 4.58051 14.2709 4.40673 14.2725C4.23295 14.274 4.06318 14.2202 3.92204 14.1188C3.7809 14.0174 3.67572 13.8737 3.62175 13.7085C3.56778 13.5433 3.56783 13.3652 3.62188 13.2001L4.67522 9.95339C4.7185 9.81976 4.71846 9.67588 4.67513 9.54227C4.63179 9.40867 4.54736 9.29216 4.43388 9.20938L1.67122 7.19005C1.53209 7.08818 1.42871 6.94495 1.37585 6.78081C1.32298 6.61668 1.32334 6.44004 1.37687 6.27612C1.4304 6.1122 1.53437 5.96939 1.67391 5.86809C1.81346 5.76678 1.98145 5.71217 2.15388 5.71205H5.55388C5.69503 5.71205 5.83253 5.66725 5.94658 5.5841C6.06064 5.50096 6.14536 5.38376 6.18855 5.24938L7.22188 2.02872C7.27493 1.86391 7.37889 1.72018 7.51882 1.61822C7.65875 1.51626 7.82742 1.46132 8.00055 1.46132C8.17369 1.46132 8.34236 1.51626 8.48228 1.61822C8.62221 1.72018 8.72618 1.86391 8.77922 2.02872L9.81255 5.24938C9.85574 5.38376 9.94046 5.50096 10.0545 5.5841C10.1686 5.66725 10.3061 5.71205 10.4472 5.71205H13.8472C14.0197 5.71217 14.1876 5.76678 14.3272 5.86809C14.4667 5.96939 14.5707 6.1122 14.6242 6.27612C14.6778 6.44004 14.6781 6.61668 14.6253 6.78081C14.5724 6.94495 14.469 7.08818 14.3299 7.19005H14.3286Z" fill="#888888"/>
</g>
<defs>
<clipPath id="clip0_189_624">
<rect width="16" height="16" fill="white"/>
</clipPath>
</defs>
</svg>
