<svg width="24" height="24" viewBox="0 0 24 24" fill="none" xmlns="http://www.w3.org/2000/svg">
<path fill-rule="evenodd" clip-rule="evenodd" d="M21.8887 15.8956H17.8407C15.9437 15.8956 14.3997 14.3526 14.3987 12.4566C14.3987 10.5586 15.9427 9.0146 17.8407 9.0136H21.8887C22.3027 9.0136 22.6387 9.3496 22.6387 9.7636C22.6387 10.1776 22.3027 10.5136 21.8887 10.5136H17.8407C16.7697 10.5146 15.8987 11.3856 15.8987 12.4556C15.8987 13.5246 16.7707 14.3956 17.8407 14.3956H21.8887C22.3027 14.3956 22.6387 14.7316 22.6387 15.1456C22.6387 15.5596 22.3027 15.8956 21.8887 15.8956Z" fill="#939393"/>
<path fill-rule="evenodd" clip-rule="evenodd" d="M18.2983 13.1436H17.9863C17.5723 13.1436 17.2363 12.8076 17.2363 12.3936C17.2363 11.9796 17.5723 11.6436 17.9863 11.6436H18.2983C18.7123 11.6436 19.0483 11.9796 19.0483 12.3936C19.0483 12.8076 18.7123 13.1436 18.2983 13.1436Z" fill="#939393"/>
<mask id="mask0_8_34" style="mask-type:alpha" maskUnits="userSpaceOnUse" x="2" y="3" width="21" height="20">
<path fill-rule="evenodd" clip-rule="evenodd" d="M2 3H22.6386V22.1729H2V3Z" fill="white"/>
</mask>
<g mask="url(#mask0_8_34)">
<path fill-rule="evenodd" clip-rule="evenodd" d="M7.99757 4.5C5.51757 4.5 3.49957 6.518 3.49957 8.998V16.175C3.49957 18.655 5.51757 20.673 7.99757 20.673H16.6416C19.1216 20.673 21.1386 18.655 21.1386 16.175V8.998C21.1386 6.518 19.1216 4.5 16.6416 4.5H7.99757ZM16.6416 22.173H7.99757C4.69057 22.173 1.99957 19.482 1.99957 16.175V8.998C1.99957 5.69 4.69057 3 7.99757 3H16.6416C19.9486 3 22.6386 5.69 22.6386 8.998V16.175C22.6386 19.482 19.9486 22.173 16.6416 22.173Z" fill="#939393"/>
</g>
<path fill-rule="evenodd" clip-rule="evenodd" d="M12.6846 9.0381H7.28558C6.87158 9.0381 6.53558 8.7021 6.53558 8.2881C6.53558 7.8741 6.87158 7.5381 7.28558 7.5381H12.6846C13.0986 7.5381 13.4346 7.8741 13.4346 8.2881C13.4346 8.7021 13.0986 9.0381 12.6846 9.0381Z" fill="#939393"/>
</svg>
